<svg xmlns="http://www.w3.org/2000/svg" viewBox="0 0 160 160" role="img" aria-labelledby="t">
<title id="t">L2Counter dragon crest</title>
<defs>
  <radialGradient id="bg" cx="50%" cy="42%" r="66%">
    <stop offset="0" stop-color="#143a4a"/>
    <stop offset=".55" stop-color="#071923"/>
    <stop offset="1" stop-color="#02080d"/>
  </radialGradient>
  <linearGradient id="ice" x1="0" y1="0" x2="1" y2="1">
    <stop offset="0" stop-color="#effcff"/>
    <stop offset=".18" stop-color="#b9e7ef"/>
    <stop offset=".42" stop-color="#5dc0d4"/>
    <stop offset=".68" stop-color="#dff7fb"/>
    <stop offset="1" stop-color="#4d92a4"/>
  </linearGradient>
  <linearGradient id="cyan" x1="0" y1="0" x2="1" y2="1">
    <stop offset="0" stop-color="#aef3ff"/>
    <stop offset=".55" stop-color="#37c7e4"/>
    <stop offset="1" stop-color="#0d6e87"/>
  </linearGradient>
  <filter id="g" x="-50%" y="-50%" width="200%" height="200%">
    <feGaussianBlur stdDeviation="4" result="b"/>
    <feColorMatrix in="b" type="matrix" values="0 0 0 0 0.18 0 0 0 0 0.78 0 0 0 0 1 0 0 0 .8 0"/>
    <feMerge><feMergeNode/><feMergeNode in="SourceGraphic"/></feMerge>
  </filter>
</defs>
<circle cx="80" cy="80" r="71" fill="url(#bg)" stroke="#64d4e8" stroke-opacity=".40" stroke-width="2"/>
<circle cx="80" cy="80" r="63" fill="none" stroke="#c9f4fa" stroke-opacity=".10"/>
<g filter="url(#g)">
  <!-- outer dragon horns / wing -->
  <path d="M47 35c12-12 28-19 45-18-8 4-14 9-18 15 13-2 28 1 39 9-12 1-20 4-27 9 14 2 25 8 32 18-11-3-20-3-29 1 11 7 18 16 20 27-8-8-16-13-25-15 3 12 1 24-5 34-1-12-6-21-14-29-8-8-20-13-34-14 8-7 17-11 28-12-9-6-17-14-22-25 4 2 7 2 10 0z" fill="none" stroke="url(#cyan)" stroke-width="5" stroke-linecap="round" stroke-linejoin="round"/>
  <!-- dragon head -->
  <path d="M42 86c5-18 17-33 34-41 12-6 25-7 37-4-8 4-14 9-19 15 11 0 20 3 29 8-9 3-16 7-21 12 7 2 13 6 18 12-9 0-17 2-23 6-5 3-9 7-12 12-4 6-10 11-17 14-10 4-21 4-31 0 8-2 15-6 20-11-9 1-18-1-26-6 9-2 16-6 21-12-6 0-10-2-10-5z" fill="url(#ice)" opacity=".97"/>
  <!-- face cuts -->
  <path d="M77 59c8-5 16-7 25-6-8 5-13 10-17 16-4-4-6-7-8-10z" fill="#07151f" opacity=".88"/>
  <path d="M71 89c7-7 15-11 24-13-5 8-11 13-19 17z" fill="#06212c" opacity=".88"/>
  <path d="M83 72l14-2-10 8z" fill="#bdf7ff"/>
  <circle cx="90" cy="72" r="3.8" fill="#eaffff"/>
  <!-- lower fang / C motif -->
  <path d="M68 111c-13 0-24-7-30-19-4-8-4-17-1-26 2 20 13 31 33 33 7 1 14-1 20-5-4 9-12 15-22 17z" fill="none" stroke="url(#ice)" stroke-width="6" stroke-linecap="round"/>
  <!-- II bars -->
  <path d="M112 100h6v30h-6zM124 100h6v30h-6z" fill="url(#ice)"/>
  <path d="M112 100l3-5 3 5M124 100l3-5 3 5M112 130l3 5 3-5M124 130l3 5 3-5" fill="#c8f5fb"/>
</g>
</svg>